<svg width="221" height="38" viewBox="0 0 221 38" fill="none" xmlns="http://www.w3.org/2000/svg">
<mask id="mask0_12_66" style="mask-type:luminance" maskUnits="userSpaceOnUse" x="0" y="0" width="48" height="38">
<path d="M48 0H0V38H48V0Z" fill="white"/>
</mask>
<g mask="url(#mask0_12_66)">
<path d="M10.824 6.61637V28.1922C10.8092 29.5486 10.2324 30.8446 9.2191 31.7988C8.20578 32.7529 6.83766 33.2882 5.412 33.2882C3.98632 33.2882 2.61822 32.7529 1.60489 31.7988C0.591547 30.8446 0.0148265 29.5486 0 28.1922V6.61637C0.000931223 5.25086 0.571885 3.94159 1.58729 2.97654C2.6027 2.01149 3.9794 1.46967 5.41463 1.47026C6.31218 1.468 7.19584 1.68059 7.98439 2.08847C7.99668 2.09348 8.00195 2.09961 8.0078 2.09961C8.01085 2.10279 8.015 2.10477 8.01951 2.10518C8.46831 2.33815 8.87859 2.63279 9.23707 2.97958C9.74025 3.45651 10.1394 4.02329 10.4118 4.64739C10.6841 5.2715 10.8242 5.94064 10.824 6.61637Z" fill="white"/>
<path d="M23.1921 11.278V32.8483C23.1921 33.5245 23.0522 34.194 22.7801 34.8187C22.5082 35.4434 22.1096 36.011 21.6071 36.4891C21.1045 36.9673 20.5079 37.3465 19.8514 37.6053C19.1948 37.8641 18.4911 37.9972 17.7804 37.9972C17.0697 37.9972 16.366 37.8641 15.7095 37.6053C15.0529 37.3465 14.4563 36.9673 13.9538 36.4891C13.4512 36.011 13.0526 35.4434 12.7806 34.8187C12.5087 34.194 12.3687 33.5245 12.3687 32.8483V11.278C12.3685 10.6015 12.5085 9.93147 12.7806 9.30641C13.0526 8.6813 13.4515 8.11334 13.9543 7.63493C14.4571 7.15651 15.0541 6.77702 15.711 6.51821C16.3681 6.25934 17.0722 6.12618 17.7833 6.12634C17.9765 6.12634 18.1638 6.13748 18.3453 6.15363H18.3576C19.6853 6.29097 20.913 6.88991 21.8052 7.83548C22.6974 8.78105 23.1913 10.0073 23.1921 11.278Z" fill="white"/>
<path d="M35.6312 5.14603V26.7219C35.6312 28.0874 35.061 29.3971 34.0461 30.3627C33.0312 31.3283 31.6547 31.8708 30.2194 31.8708C28.7842 31.8708 27.4077 31.3283 26.3928 30.3627C25.3779 29.3971 24.8077 28.0874 24.8077 26.7219V5.14603C24.8077 4.46976 24.9478 3.80012 25.22 3.1754C25.4922 2.55068 25.8911 1.98313 26.394 1.5052C26.8969 1.02726 27.4938 0.648323 28.1507 0.390031C28.8076 0.131742 29.5116 -0.000826721 30.2224 -9.48292e-05C30.4457 -0.00228386 30.6688 0.0126158 30.8897 0.0444603H30.9014C32.0916 0.181471 33.1988 0.695428 34.0448 1.50364C34.548 1.98166 34.9472 2.54945 35.2193 3.17447C35.4916 3.79949 35.6315 4.46947 35.6312 5.14603Z" fill="white"/>
<path d="M47.9999 11.0324V32.6032C47.9999 33.2794 47.8598 33.9489 47.5879 34.5736C47.3159 35.1983 46.9173 35.7659 46.4148 36.244C45.9123 36.7222 45.3157 37.1014 44.6591 37.3602C44.0025 37.619 43.2988 37.7521 42.5882 37.7521C41.8775 37.7521 41.1737 37.619 40.5172 37.3602C39.8606 37.1014 39.264 36.7222 38.7615 36.244C38.259 35.7659 37.8603 35.1983 37.5884 34.5736C37.3164 33.9489 37.1765 33.2794 37.1765 32.6032V11.0324C37.1763 10.3558 37.3164 9.68592 37.5884 9.06081C37.8605 8.43576 38.2594 7.86779 38.7621 7.38944C39.265 6.91103 39.8619 6.53158 40.5189 6.27272C41.1758 6.01385 41.88 5.88063 42.5911 5.88069C43.3072 5.8779 44.0164 6.01458 44.675 6.28224H44.6808C44.6839 6.28542 44.688 6.28742 44.6926 6.28781C45.3369 6.544 45.9218 6.91877 46.4135 7.39055C46.9182 7.8674 47.3183 8.43492 47.5906 9.06009C47.8629 9.68525 48.002 10.3556 47.9999 11.0324Z" fill="white"/>
<g style="mix-blend-mode:multiply" opacity="0.3">
<path d="M10.824 12.8262V28.1922C10.8092 29.5486 10.2324 30.8446 9.2191 31.7987C8.20578 32.7529 6.83766 33.2881 5.412 33.2881C3.98632 33.2881 2.61822 32.7529 1.60489 31.7987C0.591547 30.8446 0.0148265 29.5486 0 28.1922V27.3067C0 27.3067 0.0117081 27.4342 0.0351228 27.6681C0.0468301 27.9076 0.0819518 28.259 0.141074 28.6873C0.240801 29.1978 0.413939 29.6927 0.65561 30.1582C1.0829 30.9851 1.74823 31.6795 2.57415 32.1607C3.40007 32.6418 4.35263 32.8899 5.32098 32.8761C5.76013 32.8717 6.19686 32.8137 6.62049 32.7034C7.5154 32.4637 8.32226 31.9911 8.95024 31.3389C9.59333 30.6753 10.0168 29.8463 10.1678 28.9552C10.1795 28.8438 10.2088 28.7547 10.2146 28.6266L10.2386 28.2479C10.2498 28.053 10.2439 27.7578 10.2498 27.5183C10.2498 27.0171 10.2556 26.5102 10.2615 26.0146C10.2615 25.0176 10.2966 24.0374 10.3089 23.0851C10.3493 21.1859 10.4137 19.4143 10.4898 17.8944C10.6308 14.8535 10.824 12.8262 10.824 12.8262Z" fill="white"/>
</g>
<g style="mix-blend-mode:overlay" opacity="0.6">
<path d="M8.00839 2.09966C7.80486 2.03654 7.5977 1.98447 7.3879 1.94372C6.84708 1.82445 6.29175 1.77573 5.73717 1.79891C5.56277 1.8051 5.38895 1.82185 5.21678 1.84904C5.03543 1.87024 4.85559 1.90186 4.67824 1.94372C3.47069 2.20358 2.39372 2.85051 1.6279 3.77605C1.36093 4.08728 1.1367 4.42958 0.960585 4.79469C0.792451 5.14819 0.664888 5.5179 0.580098 5.89743C0.537036 6.09052 0.505569 6.28573 0.485853 6.48222L0.468292 6.63259C0.468292 6.63816 0.462438 6.7217 0.456585 6.76069C0.450731 6.86094 0.444879 6.96119 0.433757 7.05587C0.409757 7.44572 0.36878 7.8133 0.333659 8.15304C0.262336 8.91159 0.150976 9.6663 0 10.4142V6.61588C0.00108081 5.72255 0.246284 4.84489 0.711541 4.06898C1.1768 3.29306 1.84612 2.64559 2.6538 2.19011C3.46148 1.73462 4.37977 1.48679 5.31852 1.47094C6.25727 1.45508 7.1842 1.67174 8.00839 2.09966Z" fill="white"/>
</g>
<g style="mix-blend-mode:multiply" opacity="0.3">
<path d="M23.1921 17.465V32.8483C23.1921 33.5244 23.0522 34.1939 22.7801 34.8187C22.5082 35.4434 22.1096 36.011 21.6071 36.4891C21.1045 36.9672 20.5079 37.3464 19.8514 37.6052C19.1948 37.864 18.4911 37.9972 17.7804 37.9972C17.0697 37.9972 16.366 37.864 15.7095 37.6052C15.0529 37.3464 14.4563 36.9672 13.9538 36.4891C13.4512 36.011 13.0526 35.4434 12.7806 34.8187C12.5087 34.1939 12.3687 33.5244 12.3687 32.8483V32.2245C12.3687 32.2245 12.3804 32.3526 12.4038 32.5859C12.4246 32.9233 12.4735 33.2585 12.5502 33.5884C12.8145 34.7352 13.4865 35.7603 14.4526 36.4906C15.0787 36.9597 15.8097 37.2855 16.5892 37.443C16.7884 37.4813 16.9897 37.5092 17.1921 37.5266C17.4142 37.5411 17.6369 37.5448 17.8594 37.5377C18.3004 37.5147 18.7369 37.4416 19.1595 37.3199C20.0351 37.0467 20.816 36.5519 21.4185 35.8886C22.0364 35.214 22.4314 34.381 22.5541 33.4938C22.5886 33.2649 22.6082 33.0343 22.6126 32.8031L22.6185 32.0507C22.6185 31.5495 22.6243 31.0482 22.6308 30.5531C22.6308 29.5673 22.6653 28.5927 22.6776 27.6459C22.718 25.7629 22.7824 24.0035 22.8585 22.4942C22.999 19.4761 23.1921 17.465 23.1921 17.465Z" fill="white"/>
</g>
<g style="mix-blend-mode:overlay" opacity="0.6">
<path d="M18.3453 6.15363C18.2926 6.16533 18.0877 6.19318 17.7658 6.23773C17.5843 6.28229 17.3625 6.3157 17.1219 6.38254C16.8533 6.45711 16.5895 6.54616 16.3316 6.64931C16.0357 6.77379 15.7501 6.9192 15.477 7.08428C15.1821 7.27013 14.9023 7.47675 14.6399 7.70248C14.3721 7.9496 14.129 8.21993 13.9141 8.51004C13.6929 8.80433 13.5045 9.11978 13.3521 9.45127C13.2037 9.78321 13.0901 10.1283 13.0132 10.4816C12.9739 10.6582 12.9444 10.8367 12.9248 11.0163L12.8955 11.283L12.8838 11.5732C12.8429 12.3362 12.7785 13.0485 12.7024 13.6617C12.6311 14.3484 12.5197 15.0308 12.3687 15.7057V11.278C12.3685 10.6015 12.5085 9.93147 12.7806 9.30641C13.0526 8.6813 13.4515 8.11334 13.9543 7.63493C14.4571 7.15651 15.0541 6.77702 15.711 6.51821C16.3681 6.25934 17.0722 6.12618 17.7833 6.12634C17.9765 6.12634 18.1638 6.13748 18.3453 6.15363Z" fill="white"/>
</g>
<g style="mix-blend-mode:multiply" opacity="0.3">
<path d="M35.6312 7.35162V26.7219C35.6312 28.0875 35.061 29.3972 34.0461 30.3628C33.0312 31.3284 31.6547 31.8709 30.2194 31.8709C28.7842 31.8709 27.4077 31.3284 26.3928 30.3628C25.3779 29.3972 24.8077 28.0875 24.8077 26.7219V26.2876C24.8077 26.2876 24.8194 26.4268 24.8429 26.6886C24.8746 27.0633 24.9431 27.4343 25.0477 27.7969C25.2161 28.3493 25.4813 28.8706 25.8321 29.339C26.2723 29.9372 26.846 30.4355 27.5121 30.7982C28.2854 31.2253 29.1643 31.4485 30.0585 31.4448C30.5324 31.4499 31.0044 31.386 31.4581 31.2554C31.9355 31.1294 32.3896 30.934 32.8044 30.6763C33.6675 30.137 34.334 29.3569 34.7127 28.4429L34.8473 28.0976L34.941 27.7351C34.9761 27.613 34.982 27.4961 35.0054 27.3792C35.0305 27.2525 35.0423 27.1238 35.0405 26.9948C35.0698 26.4936 35.0405 25.8866 35.0464 25.3408C35.0522 24.2158 35.0581 23.0907 35.0698 21.9824C35.0698 20.8741 35.1049 19.7881 35.1166 18.7355C35.1576 16.6247 35.222 14.6586 35.2981 12.9711C35.438 9.59604 35.6312 7.35162 35.6312 7.35162Z" fill="white"/>
</g>
<g style="mix-blend-mode:overlay" opacity="0.6">
<path d="M30.8897 0.0444603C30.8136 0.0555991 30.6204 0.0834459 30.3336 0.116862C30.158 0.128001 29.9297 0.199846 29.6838 0.238832C29.4142 0.309663 29.1485 0.393498 28.8877 0.490012C28.5885 0.608668 28.2989 0.748288 28.0214 0.907717C27.7186 1.08385 27.4328 1.28513 27.1673 1.50921C27.0263 1.6206 26.9033 1.75427 26.7752 1.87679C26.6581 2.0216 26.5229 2.14914 26.4175 2.30007C26.1887 2.59052 25.9944 2.90412 25.838 3.23517C25.6764 3.56323 25.5527 3.90702 25.4692 4.26049C25.4458 4.43871 25.3873 4.57238 25.3697 4.78402L25.3404 5.07307L25.3346 5.14603V5.1516L25.3287 5.15661V5.19615L25.3229 5.34096C25.2819 6.10954 25.2175 6.82242 25.1414 7.43506C25.0703 8.1236 24.9589 8.80786 24.8077 9.48459V5.14603C24.8077 4.46976 24.9478 3.80012 25.22 3.1754C25.4922 2.55068 25.8911 1.98313 26.394 1.5052C26.8969 1.02726 27.4938 0.648323 28.1507 0.390031C28.8076 0.131742 29.5116 -0.000826721 30.2224 -9.48292e-05C30.4457 -0.00228386 30.6688 0.0126158 30.8897 0.0444603Z" fill="white"/>
</g>
<g style="mix-blend-mode:overlay" opacity="0.6">
<path d="M44.675 6.28224C44.6223 6.27055 44.4116 6.23156 44.0779 6.19313C43.8847 6.17085 43.6506 6.15916 43.3872 6.15359C43.0936 6.15253 42.8004 6.16946 42.5091 6.20427C42.173 6.25189 41.8406 6.32056 41.514 6.40978C41.1621 6.51777 40.8212 6.65589 40.4955 6.82247C39.7995 7.18487 39.1944 7.68651 38.7218 8.29279C38.4801 8.59627 38.2758 8.92514 38.113 9.27301C37.9562 9.60934 37.8365 9.96022 37.756 10.3201C37.7122 10.5015 37.6828 10.6858 37.6682 10.8714L37.6506 11.0107L37.6447 11.0385L37.6389 11.0602L37.633 11.1332C37.6272 11.2279 37.6213 11.317 37.6155 11.4117C37.5862 11.7792 37.5511 12.1301 37.5101 12.4476C37.439 13.1675 37.3277 13.8832 37.1765 14.5918V11.0324C37.1763 10.3558 37.3164 9.68592 37.5884 9.06081C37.8605 8.43576 38.2594 7.86779 38.7621 7.38944C39.265 6.91103 39.8619 6.53158 40.5189 6.27272C41.1758 6.01385 41.88 5.88063 42.5911 5.88069C43.3072 5.8779 44.0164 6.01458 44.675 6.28224Z" fill="white"/>
</g>
<g style="mix-blend-mode:multiply" opacity="0.3">
<path d="M47.9999 18.7689V32.6032C47.9999 33.2794 47.8598 33.9489 47.5879 34.5736C47.3159 35.1983 46.9173 35.7659 46.4148 36.2441C45.9123 36.7221 45.3157 37.1014 44.6591 37.3602C44.0025 37.6189 43.2988 37.7522 42.5882 37.7522C41.8775 37.7522 41.1737 37.6189 40.5172 37.3602C39.8606 37.1014 39.264 36.7221 38.7615 36.2441C38.259 35.7659 37.8603 35.1983 37.5884 34.5736C37.3164 33.9489 37.1765 33.2794 37.1765 32.6032C37.1765 32.6032 37.194 32.7202 37.2291 32.943C37.2439 33.075 37.2713 33.2055 37.3111 33.3328C37.3473 33.509 37.3982 33.6822 37.4633 33.8508C37.7602 34.7052 38.2917 35.4686 39.0029 36.0621C39.7141 36.6554 40.579 37.0572 41.5082 37.2258C41.7013 37.2593 41.8828 37.2704 42.076 37.2927L42.4038 37.2982H42.6204L42.6965 37.2871C43.1093 37.2667 43.518 37.1993 43.914 37.0866C44.7327 36.8453 45.4725 36.4079 46.0623 35.8162C46.3629 35.5123 46.6225 35.1739 46.835 34.8087C47.0367 34.4386 47.1882 34.0456 47.2857 33.6392C47.3379 33.4414 47.3751 33.2404 47.3969 33.0377L47.4204 32.6924V32.6032L47.4262 32.5414V32.3693C47.4262 31.9014 47.4321 31.4331 47.4379 30.9714C47.4379 30.0525 47.473 29.1391 47.4847 28.2647C47.5257 26.5048 47.5901 24.8618 47.6662 23.4583C47.8067 20.6396 47.9999 18.7689 47.9999 18.7689Z" fill="white"/>
</g>
</g>
<path d="M67.718 28.234C67.1287 28.234 66.678 28.0693 66.366 27.74C66.054 27.4107 65.898 26.9513 65.898 26.362V11.308C65.898 10.7187 66.0627 10.2593 66.392 9.93C66.7387 9.60067 67.2067 9.436 67.796 9.436C68.316 9.436 68.7233 9.54 69.018 9.748C69.33 9.93867 69.616 10.2767 69.876 10.762L75.882 21.734H74.998L81.004 10.762C81.264 10.2767 81.5413 9.93867 81.836 9.748C82.148 9.54 82.5553 9.436 83.058 9.436C83.6473 9.436 84.098 9.60067 84.41 9.93C84.7393 10.2593 84.904 10.7187 84.904 11.308V26.362C84.904 26.9513 84.748 27.4107 84.436 27.74C84.124 28.0693 83.6733 28.234 83.084 28.234C82.4947 28.234 82.0353 28.0693 81.706 27.74C81.394 27.4107 81.238 26.9513 81.238 26.362V15.832H81.81L76.974 24.49C76.766 24.8193 76.5407 25.0707 76.298 25.244C76.0727 25.4 75.7693 25.478 75.388 25.478C75.0067 25.478 74.6947 25.3913 74.452 25.218C74.2093 25.0447 73.9927 24.802 73.802 24.49L68.914 15.806H69.538V26.362C69.538 26.9513 69.382 27.4107 69.07 27.74C68.7753 28.0693 68.3247 28.234 67.718 28.234ZM94.4194 28.286C93.0501 28.286 91.8541 28.0173 90.8314 27.48C89.8261 26.9427 89.0461 26.1713 88.4914 25.166C87.9367 24.1607 87.6594 22.9733 87.6594 21.604C87.6594 20.5813 87.8154 19.6627 88.1274 18.848C88.4394 18.0333 88.8901 17.34 89.4794 16.768C90.0861 16.1787 90.8054 15.7367 91.6374 15.442C92.4694 15.13 93.3967 14.974 94.4194 14.974C95.7887 14.974 96.9761 15.2427 97.9814 15.78C99.0041 16.3173 99.7927 17.08 100.347 18.068C100.919 19.056 101.205 20.2347 101.205 21.604C101.205 22.644 101.041 23.5713 100.711 24.386C100.399 25.2007 99.9487 25.9027 99.3594 26.492C98.7701 27.0813 98.0507 27.532 97.2014 27.844C96.3694 28.1387 95.4421 28.286 94.4194 28.286ZM94.4194 25.348C94.9914 25.348 95.4854 25.2093 95.9014 24.932C96.3174 24.6547 96.6467 24.2473 96.8894 23.71C97.1321 23.1553 97.2534 22.4533 97.2534 21.604C97.2534 20.3387 96.9934 19.4113 96.4734 18.822C95.9534 18.2153 95.2687 17.912 94.4194 17.912C93.8647 17.912 93.3707 18.042 92.9374 18.302C92.5214 18.562 92.1921 18.9693 91.9494 19.524C91.7241 20.0613 91.6114 20.7547 91.6114 21.604C91.6114 22.8693 91.8714 23.814 92.3914 24.438C92.9114 25.0447 93.5874 25.348 94.4194 25.348ZM105.57 28.234C104.929 28.234 104.435 28.0607 104.088 27.714C103.759 27.3673 103.594 26.8733 103.594 26.232V17.002C103.594 16.3607 103.759 15.8753 104.088 15.546C104.435 15.1993 104.911 15.026 105.518 15.026C106.142 15.026 106.619 15.1993 106.948 15.546C107.277 15.8753 107.442 16.3607 107.442 17.002V18.484L107.156 17.626C107.555 16.7767 108.144 16.1267 108.924 15.676C109.721 15.208 110.623 14.974 111.628 14.974C112.651 14.974 113.491 15.1733 114.15 15.572C114.809 15.9533 115.303 16.5427 115.632 17.34C115.961 18.12 116.126 19.1167 116.126 20.33V26.232C116.126 26.8733 115.953 27.3673 115.606 27.714C115.277 28.0607 114.791 28.234 114.15 28.234C113.526 28.234 113.041 28.0607 112.694 27.714C112.365 27.3673 112.2 26.8733 112.2 26.232V20.512C112.2 19.628 112.035 18.9953 111.706 18.614C111.394 18.2153 110.909 18.016 110.25 18.016C109.418 18.016 108.751 18.276 108.248 18.796C107.763 19.316 107.52 20.0093 107.52 20.876V26.232C107.52 27.5667 106.87 28.234 105.57 28.234ZM125.687 28.286C124.179 28.286 122.879 28.0173 121.787 27.48C120.712 26.9253 119.88 26.154 119.291 25.166C118.719 24.1607 118.433 22.982 118.433 21.63C118.433 20.3127 118.71 19.16 119.265 18.172C119.819 17.1667 120.591 16.3867 121.579 15.832C122.584 15.26 123.719 14.974 124.985 14.974C125.903 14.974 126.735 15.13 127.481 15.442C128.226 15.7367 128.867 16.17 129.405 16.742C129.942 17.2967 130.349 17.9813 130.627 18.796C130.904 19.5933 131.043 20.486 131.043 21.474C131.043 21.8033 130.939 22.0547 130.731 22.228C130.523 22.384 130.219 22.462 129.821 22.462H121.657V20.434H128.209L127.793 20.798C127.793 20.0873 127.689 19.498 127.481 19.03C127.273 18.5447 126.969 18.1807 126.571 17.938C126.189 17.6953 125.713 17.574 125.141 17.574C124.499 17.574 123.953 17.7213 123.503 18.016C123.052 18.3107 122.705 18.7353 122.463 19.29C122.22 19.8447 122.099 20.512 122.099 21.292V21.5C122.099 22.8173 122.402 23.788 123.009 24.412C123.633 25.036 124.551 25.348 125.765 25.348C126.181 25.348 126.657 25.296 127.195 25.192C127.732 25.088 128.235 24.9233 128.703 24.698C129.101 24.5073 129.457 24.4467 129.769 24.516C130.081 24.568 130.323 24.7067 130.497 24.932C130.67 25.1573 130.765 25.4173 130.783 25.712C130.817 26.0067 130.757 26.3013 130.601 26.596C130.445 26.8733 130.185 27.1073 129.821 27.298C129.231 27.6273 128.564 27.87 127.819 28.026C127.091 28.1993 126.38 28.286 125.687 28.286ZM136.582 32.914C136.131 32.914 135.759 32.7927 135.464 32.55C135.169 32.3073 134.996 31.9867 134.944 31.588C134.892 31.2067 134.961 30.7993 135.152 30.366L136.894 26.518V28.13L132.292 17.574C132.119 17.1233 132.058 16.7073 132.11 16.326C132.179 15.9273 132.37 15.6153 132.682 15.39C133.011 15.1473 133.462 15.026 134.034 15.026C134.502 15.026 134.875 15.1387 135.152 15.364C135.447 15.572 135.715 15.9793 135.958 16.586L139.026 24.386H138.194L141.366 16.56C141.609 15.9707 141.877 15.572 142.172 15.364C142.484 15.1387 142.9 15.026 143.42 15.026C143.871 15.026 144.226 15.1473 144.486 15.39C144.763 15.6153 144.928 15.9187 144.98 16.3C145.049 16.6813 144.98 17.0973 144.772 17.548L138.662 31.406C138.402 31.9953 138.107 32.394 137.778 32.602C137.466 32.81 137.067 32.914 136.582 32.914ZM156.373 28.286C154.31 28.286 152.56 27.896 151.121 27.116C149.7 26.336 148.616 25.244 147.871 23.84C147.126 22.436 146.753 20.7893 146.753 18.9C146.753 17.444 146.97 16.1353 147.403 14.974C147.854 13.7953 148.495 12.7987 149.327 11.984C150.176 11.152 151.199 10.5107 152.395 10.06C153.608 9.60933 154.978 9.384 156.503 9.384C157.439 9.384 158.375 9.488 159.311 9.696C160.247 9.904 161.148 10.2507 162.015 10.736C162.379 10.944 162.622 11.2127 162.743 11.542C162.882 11.854 162.916 12.192 162.847 12.556C162.795 12.9027 162.656 13.2147 162.431 13.492C162.223 13.752 161.946 13.9253 161.599 14.012C161.27 14.0813 160.888 14.012 160.455 13.804C159.883 13.492 159.276 13.2667 158.635 13.128C157.994 12.972 157.292 12.894 156.529 12.894C155.298 12.894 154.267 13.128 153.435 13.596C152.603 14.0467 151.979 14.7227 151.563 15.624C151.164 16.508 150.965 17.6 150.965 18.9C150.965 20.8587 151.433 22.3407 152.369 23.346C153.322 24.3513 154.726 24.854 156.581 24.854C157.205 24.854 157.846 24.7933 158.505 24.672C159.164 24.5507 159.814 24.3773 160.455 24.152L159.701 25.79V20.798H157.361C156.841 20.798 156.442 20.668 156.165 20.408C155.888 20.148 155.749 19.7927 155.749 19.342C155.749 18.874 155.888 18.5187 156.165 18.276C156.442 18.016 156.841 17.886 157.361 17.886H161.443C161.963 17.886 162.353 18.0247 162.613 18.302C162.89 18.5793 163.029 18.978 163.029 19.498V25.53C163.029 25.9807 162.942 26.362 162.769 26.674C162.596 26.986 162.301 27.2113 161.885 27.35C161.105 27.6273 160.23 27.8527 159.259 28.026C158.288 28.1993 157.326 28.286 156.373 28.286ZM170.964 28.286C169.889 28.286 168.997 28.0867 168.286 27.688C167.575 27.2893 167.047 26.6913 166.7 25.894C166.371 25.0793 166.206 24.074 166.206 22.878V17.002C166.206 16.3433 166.371 15.8493 166.7 15.52C167.047 15.1907 167.532 15.026 168.156 15.026C168.78 15.026 169.265 15.1907 169.612 15.52C169.959 15.8493 170.132 16.3433 170.132 17.002V22.982C170.132 23.7447 170.288 24.3167 170.6 24.698C170.912 25.062 171.406 25.244 172.082 25.244C172.827 25.244 173.434 24.984 173.902 24.464C174.387 23.9267 174.63 23.2247 174.63 22.358V17.002C174.63 16.3433 174.795 15.8493 175.124 15.52C175.471 15.1907 175.956 15.026 176.58 15.026C177.221 15.026 177.707 15.1907 178.036 15.52C178.383 15.8493 178.556 16.3433 178.556 17.002V26.232C178.556 27.5667 177.923 28.234 176.658 28.234C176.034 28.234 175.557 28.0607 175.228 27.714C174.899 27.3673 174.734 26.8733 174.734 26.232V24.49L175.124 25.504C174.743 26.388 174.197 27.0727 173.486 27.558C172.775 28.0433 171.935 28.286 170.964 28.286ZM185.91 28.286C184.974 28.286 184.133 28.104 183.388 27.74C182.643 27.376 182.062 26.882 181.646 26.258C181.23 25.634 181.022 24.932 181.022 24.152C181.022 23.216 181.265 22.4793 181.75 21.942C182.235 21.3873 183.024 20.9973 184.116 20.772C185.208 20.5293 186.655 20.408 188.458 20.408H189.836V22.436H188.484C187.6 22.436 186.881 22.488 186.326 22.592C185.789 22.6787 185.399 22.8347 185.156 23.06C184.931 23.2853 184.818 23.5973 184.818 23.996C184.818 24.4813 184.983 24.88 185.312 25.192C185.659 25.504 186.153 25.66 186.794 25.66C187.297 25.66 187.739 25.5473 188.12 25.322C188.519 25.0793 188.831 24.7587 189.056 24.36C189.281 23.944 189.394 23.476 189.394 22.956V19.966C189.394 19.2033 189.221 18.666 188.874 18.354C188.527 18.0247 187.938 17.86 187.106 17.86C186.638 17.86 186.127 17.9207 185.572 18.042C185.035 18.146 184.437 18.328 183.778 18.588C183.397 18.7613 183.059 18.8047 182.764 18.718C182.469 18.614 182.244 18.4407 182.088 18.198C181.932 17.938 181.854 17.6607 181.854 17.366C181.854 17.054 181.941 16.7593 182.114 16.482C182.287 16.1873 182.573 15.9707 182.972 15.832C183.787 15.5027 184.549 15.2773 185.26 15.156C185.988 15.0347 186.655 14.974 187.262 14.974C188.597 14.974 189.689 15.1733 190.538 15.572C191.405 15.9533 192.055 16.5513 192.488 17.366C192.921 18.1633 193.138 19.1947 193.138 20.46V26.232C193.138 26.8733 192.982 27.3673 192.67 27.714C192.358 28.0607 191.907 28.234 191.318 28.234C190.729 28.234 190.269 28.0607 189.94 27.714C189.628 27.3673 189.472 26.8733 189.472 26.232V25.27L189.654 25.426C189.55 26.0153 189.325 26.5267 188.978 26.96C188.649 27.376 188.224 27.7053 187.704 27.948C187.184 28.1733 186.586 28.286 185.91 28.286ZM198.095 28.234C197.436 28.234 196.933 28.0607 196.587 27.714C196.24 27.3673 196.067 26.8733 196.067 26.232V17.002C196.067 16.3607 196.231 15.8753 196.561 15.546C196.907 15.1993 197.384 15.026 197.991 15.026C198.615 15.026 199.091 15.1993 199.421 15.546C199.75 15.8753 199.915 16.3607 199.915 17.002V18.354H199.655C199.863 17.314 200.322 16.508 201.033 15.936C201.743 15.364 202.662 15.0433 203.789 14.974C204.222 14.9393 204.551 15.052 204.777 15.312C205.019 15.5547 205.149 15.962 205.167 16.534C205.201 17.0713 205.089 17.496 204.829 17.808C204.586 18.12 204.17 18.3107 203.581 18.38L202.983 18.432C201.995 18.5187 201.258 18.8047 200.773 19.29C200.305 19.7753 200.071 20.4773 200.071 21.396V26.232C200.071 26.8733 199.897 27.3673 199.551 27.714C199.221 28.0607 198.736 28.234 198.095 28.234ZM211.519 28.286C210.41 28.286 209.43 28.0173 208.581 27.48C207.749 26.9427 207.099 26.1713 206.631 25.166C206.163 24.1607 205.929 22.9733 205.929 21.604C205.929 20.2347 206.163 19.056 206.631 18.068C207.099 17.08 207.749 16.3173 208.581 15.78C209.43 15.2427 210.41 14.974 211.519 14.974C212.524 14.974 213.408 15.2167 214.171 15.702C214.951 16.1873 215.48 16.82 215.757 17.6H215.471V11.438C215.471 10.7793 215.636 10.2853 215.965 9.956C216.294 9.60933 216.78 9.436 217.421 9.436C218.045 9.436 218.53 9.60933 218.877 9.956C219.224 10.2853 219.397 10.7793 219.397 11.438V26.232C219.397 26.8733 219.224 27.3673 218.877 27.714C218.548 28.0607 218.071 28.234 217.447 28.234C216.823 28.234 216.338 28.0607 215.991 27.714C215.662 27.3673 215.497 26.8733 215.497 26.232V24.464L215.783 25.478C215.54 26.3273 215.02 27.012 214.223 27.532C213.443 28.0347 212.542 28.286 211.519 28.286ZM212.689 25.348C213.261 25.348 213.755 25.2093 214.171 24.932C214.587 24.6547 214.916 24.2473 215.159 23.71C215.402 23.1553 215.523 22.4533 215.523 21.604C215.523 20.3387 215.263 19.4113 214.743 18.822C214.223 18.2153 213.538 17.912 212.689 17.912C212.134 17.912 211.64 18.042 211.207 18.302C210.791 18.562 210.462 18.9693 210.219 19.524C209.994 20.0613 209.881 20.7547 209.881 21.604C209.881 22.8693 210.141 23.814 210.661 24.438C211.181 25.0447 211.857 25.348 212.689 25.348Z" fill="white"/>
</svg>
